# xmcd
#
# Track frame offsets:
#	150
#	15391
#	28754
#	44960
#	62656
#	78520
#	95541
#	108605
#	123111
#	139647
#	162641
#	176938
#	195491
#
# Disc length: 2805 seconds
#
# Revision: 1
# Processed by: cddbd v1.5.2PL0 Copyright (c) Steve Scherf et al.
# Submitted via: audiograbber 1.83.01
#
DISCID=b50af30d
DTITLE=Tim Bendzko - Wenn Worte meine Sprache wären
DYEAR=1900
DGENRE=
TTITLE0=Auf den ersten Blick
TTITLE1=Sag einfach Ja
TTITLE2=Mehr davon
TTITLE3=Du warst noch nie hier
TTITLE4=Wenn Worte meine Sprache wären
TTITLE5=Das letze mal
TTITLE6=Ich kann alles sehen
TTITLE7=Nur noch kurz die Welt retten
TTITLE8=Es kommt zurück
TTITLE9=Ich laufe
TTITLE10=Schall und Rauch
TTITLE11=Ich hör nicht auf
TTITLE12=Keine Zeit
EXTD=
EXTT0=
EXTT1=
EXTT2=
EXTT3=
EXTT4=
EXTT5=
EXTT6=
EXTT7=
EXTT8=
EXTT9=
EXTT10=
EXTT11=
EXTT12=
PLAYORDER=
